# xmcd
#
# Track frame offsets:
# 150
# 12797
# 29872
# 45587
# 58977
# 85512
# 103077
# 128562
# 151160
# 164822
# 177657
# 194780
# 216182
# 227857
#
# Disc length: 3155 seconds
#
#
# Revision: 0
# Processed by: cddbd v1.5.2PL0 Copyright (c) Steve Scherf et al.
# Submitted via: Nero 7, 11, 10, 0 
#
DISCID=c90c510e
DTITLE=Medford Slim Band - Too Much Is Never Enough
DYEAR=1991
DGENRE=Blues
TTITLE0=When My Baby Left Me
TTITLE1=Too Much Is Never Enough
TTITLE2=He Ain't Got What I Got
TTITLE3=I Just Keep Loving Her
TTITLE4=Early In The Morning
TTITLE5=Keep On Movin'
TTITLE6=Treat Her Right
TTITLE7=Back Slider
TTITLE8=Alligator Man
TTITLE9=If You Were Mine
TTITLE10=Statesboro Blues
TTITLE11=Easy Baby
TTITLE12=Favorite Place
TTITLE13=Flamenco Azul Para Lili
EXTD=
EXTT0=When My Baby Left Me
EXTT1=Too Much Is Never Enough
EXTT2=He Ain't Got What I Got
EXTT3=I Just Keep Loving Her
EXTT4=Early In The Morning
EXTT5=Keep On Movin'
EXTT6=Treat Her Right
EXTT7=Back Slider
EXTT8=Alligator Man
EXTT9=If You Were Mine
EXTT10=Statesboro Blues
EXTT11=Easy Baby
EXTT12=Favorite Place
EXTT13=Flamenco Azul Para Lili
PLAYORDER=
